<?xml version="1.0" encoding="UTF-8" standalone="no"?>
<svg xmlns:rdf="http://www.w3.org/1999/02/22-rdf-syntax-ns#" xmlns="http://www.w3.org/2000/svg" height="16" width="16" version="1.0" xmlns:cc="http://creativecommons.org/ns#" xmlns:dc="http://purl.org/dc/elements/1.1/">
 <path d="m9.459 0.0024748c-1.3075-0.01736-1.9055 2.1457-0.64258 2.6797 1.0225 0.378 2.0761-0.7134 1.7891-1.75-0.098-0.5419-0.59688-0.97038-1.1465-0.92969zm-0.375 4.7246c-0.2108-0.009-0.4521 0.076-0.711 0.291-1.2565 0.6173-2.2891 1.5839-3.373 2.457 0.1554 0.3811 0.32543 0.68829 0.64453 0.24609 0.4066-0.2685 1.7592-1.4276 1.6621-0.3418-0.3682 2.0167-0.83488 4.0171-1.1719 6.0391-0.3916 1.115 0.63567 2.0665 1.6387 1.3105 1.0779-0.503 1.9912-1.2877 2.9277-2.0117-0.144-0.322-0.25066-0.7887-0.59766-0.3457-0.4681 0.239-1.4681 1.3167-1.6953 0.4707 0.3154-2.181 0.97533-4.2946 1.3652-6.4609 0.2987-0.7537-0.0568-1.6273-0.6893-1.6543z"/>
</svg>
